<svg width="130px" height="24px" viewBox="0 0 130 24" version="1.1" xmlns="http://www.w3.org/2000/svg" xmlns:xlink="http://www.w3.org/1999/xlink">
    <!-- Generator: Sketch 50 (54983) - http://www.bohemiancoding.com/sketch -->
    <title>LOGO</title>
    <desc>Created with Sketch.</desc>
    <defs>
        <polygon id="path-1" points="0.689192308 0.686482759 8.58530769 0.686482759 8.58530769 20.6948773 0.689192308 20.6948773"></polygon>
    </defs>
    <g id="Символы" stroke="none" stroke-width="1" fill="none" fill-rule="evenodd">
        <g id="HEADER_DESKTOP_BLUE">
            <g id="LOGO">
                <g>
                    <path d="M81.0430335,15.7511518 C81.0430335,16.377123 80.5470899,16.8839648 79.9361552,16.8839648 L70.015873,16.8839648 C69.4310406,16.8839648 68.957672,16.3995049 68.957672,15.8016915 L68.957672,9.24812625 C68.957672,8.62287699 69.4529101,8.11531321 70.0645503,8.11531321 L79.9361552,8.11531321 C80.5470899,8.11531321 81.0430335,8.62287699 81.0430335,9.24812625 L81.0430335,15.7511518 Z M75.0275132,2 L75.021164,2 L74.9880071,2 C69.486067,2 65,6.59117789 65,12.2343052 L65,12.7656948 C65,18.4088221 69.486067,23 75,23 C80.513933,23 85,18.4088221 85,12.7656948 L85,12.2343052 C84.968254,6.48721034 80.5880071,2 75.0275132,2 Z" id="Fill-1" fill="#7DCEFF"></path>
                    <path d="M93.6890799,20 L91.3109201,20 C91.1387765,20 91,19.8675723 91,19.7049166 L91,4.29508344 C91,4.13242769 91.1387765,4 91.3109201,4 L93.6890799,4 C93.8604651,4 94,4.13242769 94,4.29508344 L94,19.7049166 C94,19.8675723 93.8604651,20 93.6890799,20" id="Fill-3" fill="#7DCEFF"></path>
                    <path d="M35.1140125,5.91421605 C33.8805963,4.68893762 32.0944635,4.01587757 30.0875252,4.01587757 L30.0544747,4.01587757 L30.0544747,4.00042107 C29.9032863,3.9976108 29.7528011,4.00955446 29.6030191,4.01587757 L29.581923,4.01587757 L29.581923,4.01658014 C27.8316535,4.09386261 26.1362337,4.77113807 24.7818668,5.91983659 L24.7818668,4.69736844 C24.7818668,4.53858809 24.6524776,4.4093156 24.4928508,4.4093156 L22.2876096,4.4093156 C22.128686,4.4093156 22,4.53858809 22,4.69736844 L22,19.7126497 C22,19.8714301 22.128686,20 22.2876096,20 L24.4928508,20 C24.6524776,20 24.7818668,19.8714301 24.7818668,19.7126497 L24.7818668,11.8207044 C24.7818668,10.5040922 25.3148938,9.25422388 26.2839061,8.30083923 C27.1861141,7.41349596 28.3717125,6.88094949 29.5945807,6.7952362 L30.0411139,6.7952362 C31.3413342,6.78329255 32.4383292,7.17462287 33.1527823,7.8856216 C33.8595003,8.58678437 34.21743,9.62377459 34.21743,10.9684896 L34.21743,19.6719008 C34.21743,19.8306811 34.3468192,19.9592511 34.5057428,19.9592511 L36.710984,19.9592511 C36.8706108,19.9592511 37,19.8306811 37,19.6719008 L37,10.9684896 C37,8.88678086 36.3474286,7.13949448 35.1140125,5.91421605" id="Fill-5" fill="#7DCEFF"></path>
                    <path d="M114.114627,5.91367688 C112.881153,4.68841266 111.094233,4.01536042 109.087904,4.01536042 L109.054149,4.01536042 L109.054852,4.00060666 C108.902954,3.99709386 108.752461,4.00973994 108.601969,4.01536042 L108.582278,4.01536042 L108.582278,4.01606298 C106.828411,4.09334455 105.135724,4.77061216 103.781997,5.91929736 L103.781997,4.69754594 C103.781997,4.53806488 103.653305,4.40879388 103.493671,4.40879388 L101.288326,4.40879388 C101.128692,4.40879388 101,4.53806488 101,4.69754594 L101,19.7119505 C101,19.870729 101.128692,20 101.288326,20 L103.493671,20 C103.653305,20 103.781997,19.870729 103.781997,19.7119505 L103.781997,11.8200968 C103.781997,10.5042023 104.315752,9.25364596 105.284107,8.30027237 C106.182841,7.4164522 107.35654,6.87899399 108.580169,6.7932817 L108.580169,6.79468681 L109.041491,6.79538937 C109.054149,6.79538937 109.066104,6.79468681 109.078762,6.79468681 C110.35443,6.79468681 111.445148,7.18179724 112.153305,7.88505956 C112.860056,8.58621419 113.218003,9.62389495 113.218003,10.9678918 L113.218003,19.671202 C113.218003,19.8306831 113.347398,19.9592515 113.506329,19.9592515 L115.711674,19.9592515 C115.871308,19.9592515 116,19.8306831 116,19.671202 L116,10.9678918 C116,8.88620721 115.348101,7.1389411 114.114627,5.91367688" id="Fill-7" fill="#7DCEFF"></path>
                    <g id="Group-11" transform="translate(121.000000, 0.000000)">
                        <mask id="mask-2" fill="white">
                            <use xlink:href="#path-1"></use>
                        </mask>
                        <g id="Clip-10"></g>
                        <path d="M8.58565385,7.24456552 L8.58565385,4.97366897 C8.58565385,4.81001379 8.45826923,4.67677241 8.30180769,4.67677241 L3.42796154,4.67677241 L3.42796154,0.983668966 C3.42796154,0.819289655 3.30126923,0.686048276 3.14480769,0.686048276 L0.973038462,0.686048276 C0.816576923,0.686048276 0.689192308,0.819289655 0.689192308,0.983668966 L0.689192308,12.6393931 C0.689192308,17.0588069 4.00534615,20.5411862 8.29142308,20.6947034 C8.45203846,20.7004966 8.58565385,20.5607379 8.58565385,20.3934621 L8.58565385,18.1211172 C8.58565385,17.9610828 8.46380769,17.8350828 8.3115,17.8278414 C5.55196154,17.6888069 3.42796154,15.4599103 3.42796154,12.6393931 L3.42796154,7.54146207 L8.30180769,7.54146207 C8.45826923,7.54146207 8.58565385,7.40894483 8.58565385,7.24456552" id="Fill-9" fill="#7DCEFF" mask="url(#mask-2)"></path>
                    </g>
                    <path d="M8.0263031,6.85619638 C5.11823243,6.85619638 2.77480163,9.26909029 2.77480163,12.2350293 L2.77480163,12.7656927 C2.77480163,15.7309097 5.11823243,18.1438036 7.99964929,18.1438036 C10.8810662,18.1438036 13.2251984,15.7309097 13.2251984,12.7656927 L13.2251984,12.2350293 C13.2083644,9.1723435 10.9736531,6.85619638 8.0263031,6.85619638 M7.99964929,21 C3.58844417,21 0,17.3062941 0,12.7656927 L0,12.2350293 C0,7.69442793 3.58844417,4 7.99964929,4 C12.5462277,4 15.974749,7.5363119 16,12.2263654 L16,12.7656927 C16,17.3062941 12.4108544,21 7.99964929,21" id="Fill-12" fill="#7DCEFF"></path>
                    <path d="M57.2251984,12.570521 C57.2251984,15.4704221 54.8810662,17.829592 51.9996493,17.829592 C49.1182324,17.829592 46.7748016,15.4704221 46.7748016,12.570521 L46.7748016,12.051673 C46.7748016,9.15177185 49.1182324,6.792602 52.0263031,6.792602 C54.9736531,6.792602 57.2083644,9.05717916 57.2251984,12.051673 L57.2251984,12.570521 Z M51.9996493,4 C50.002718,4 48.178335,4.74615276 46.7748016,5.96879853 L46.7748016,4.70097416 C46.7748016,4.54073133 46.6457411,4.41084286 46.4872211,4.41084286 L44.2875806,4.41084286 C44.1283591,4.41084286 44,4.54073133 44,4.70097416 L44,23.7105746 C44,23.8708175 44.1283591,24 44.2875806,24 L46.4872211,24 C46.6457411,24 46.7748016,23.8708175 46.7748016,23.7105746 L46.7748016,18.6541014 C48.2639078,19.9515742 50.2264697,20.7111393 52.3678927,20.613723 C56.6780939,20.4174785 60,16.6867147 60,12.344628 L60,12.0439079 C59.974749,7.45828039 56.5462277,4 51.9996493,4 Z" id="Fill-14" fill="#7DCEFF"></path>
                </g>
            </g>
        </g>
    </g>
</svg>